<svg xmlns="http://www.w3.org/2000/svg" viewBox="0 0 100 100"><title>36. Office chair</title><g id="36.-Office-chair" fill="none" fill-rule="evenodd" stroke="#222f3e" stroke-linecap="round" stroke-linejoin="round" stroke-width="4"><path id="Layer-1" d="M19.091 61.345h61.091v8.727H19.091z"/><path id="Layer-2" d="M6 50.43c0-3.611 2.938-6.54 6.545-6.54h0a6.54 6.54 0 0 1 6.546 6.54v19.643h-6.546A6.54 6.54 0 0 1 6 63.533z"/><path id="Layer-3" d="M80.182 50.43c0-3.611 2.938-6.54 6.545-6.54h0a6.54 6.54 0 0 1 6.546 6.54v13.103c0 3.612-2.938 6.54-6.546 6.54h-6.545z"/><path id="Layer-4" d="M49.636 70.073v16.982"/><path id="Layer-5" d="M25.98 87.95c1.583-.8 3.781-1.295 6.21-1.295h34.893c2.346 0 4.475.461 6.044 1.213"/><circle id="Layer-6" cx="23.455" cy="93" r="5"/><circle id="Layer-7" cx="75.818" cy="93" r="5"/><circle id="Layer-8" cx="49.636" cy="93" r="5"/><path id="Layer-9" d="M19.09 22.009C19.09 10.959 28.04 2 39.095 2h21.084c11.048 0 20.004 8.949 20.004 20.009v39.336H19.09z"/></g></svg>