<svg xmlns="http://www.w3.org/2000/svg" width="60" height="60" fill="none" viewBox="0 0 60 60"><path fill="#000" d="M35.26 59.653H5.095A5.1 5.1 0 0 1 0 54.56V5.44A5.1 5.1 0 0 1 5.094.346H35.26a5.1 5.1 0 0 1 5.092 5.093v14.172a1 1 0 1 1-2 0V5.439a3.097 3.097 0 0 0-3.092-3.093H5.094A3.097 3.097 0 0 0 2 5.439V54.56a3.097 3.097 0 0 0 3.094 3.093H35.26a3.097 3.097 0 0 0 3.092-3.093V40.37a1 1 0 0 1 2 0v14.19a5.1 5.1 0 0 1-5.092 5.093m17.973-29.656a1 1 0 0 0-1-1H24.525a1 1 0 1 0 0 2h27.708a1 1 0 0 0 1-1m-.293 9.169 5.568-5.568a5.1 5.1 0 0 0 0-7.203l-5.568-5.567a1 1 0 1 0-1.414 1.414l5.568 5.567a3.097 3.097 0 0 1 0 4.375l-5.568 5.568a.999.999 0 1 0 1.414 1.413"/></svg>