<svg width="32" height="32" viewBox="0 0 32 32" fill="none" xmlns="http://www.w3.org/2000/svg">
<g id="refresh">
<path id="Vector" fill-rule="evenodd" clip-rule="evenodd" d="M3.03422 12.5648C3.96155 9.10401 5.93572 6.46517 8.95675 4.64829C11.9897 2.82423 15.1872 2.36262 18.5492 3.26346C21.3565 4.01568 23.4825 5.4185 24.927 7.47192C25.5457 8.35144 25.9627 9.19131 26.1779 9.99152H28.1248C28.401 9.99152 28.6367 10.0892 28.8319 10.2844C29.0272 10.4797 29.1248 10.7154 29.1248 10.9915C29.1248 11.0997 29.1077 11.2051 29.0735 11.3078C29.0393 11.4104 28.9897 11.505 28.9248 11.5915L25.9248 15.5915C25.7591 15.8124 25.5396 15.9424 25.2662 15.9815C24.9929 16.0205 24.7457 15.9572 24.5248 15.7915C24.4869 15.7631 24.4512 15.7321 24.4177 15.6986C24.3842 15.6651 24.3532 15.6294 24.3248 15.5915L21.3248 11.5915C21.1591 11.3706 21.0958 11.1235 21.1349 10.8501C21.1739 10.5767 21.3039 10.3572 21.5248 10.1915C21.6114 10.1266 21.706 10.0771 21.8086 10.0428C21.9112 10.0086 22.0166 9.99152 22.1248 9.99152H24.0688C23.8922 9.56484 23.633 9.10856 23.2912 8.62267C22.1249 6.96481 20.3717 5.82236 18.0316 5.19531C15.2166 4.44104 12.5352 4.83001 9.98752 6.36221C7.53614 7.83649 5.89724 9.95344 5.07082 12.713C5.03432 12.8349 4.99941 12.9581 4.96607 13.0825C4.8946 13.3492 4.7393 13.5516 4.50015 13.6897C4.261 13.8277 4.00806 13.861 3.74133 13.7896C3.61324 13.7553 3.49659 13.6977 3.39139 13.617C3.28618 13.5363 3.20043 13.4385 3.13412 13.3236C3.06782 13.2088 3.02601 13.0856 3.0087 12.9542C2.9914 12.8227 2.9999 12.6929 3.03422 12.5648ZM25.1248 13.3249L26.1248 11.9915H24.1248L25.1248 13.3249ZM7.80013 16.4086L10.8001 20.4086C10.9658 20.6295 11.0291 20.8766 10.9901 21.15C10.951 21.4234 10.821 21.6429 10.6001 21.8086C10.5136 21.8735 10.419 21.9231 10.3164 21.9573C10.2137 21.9915 10.1083 22.0086 10.0001 22.0086H8.05621C8.23275 22.4353 8.49192 22.8915 8.83372 23.3774C10 25.0352 11.7532 26.1777 14.0934 26.8047C16.9084 27.559 19.5897 27.1701 22.1374 25.6378C24.5888 24.1636 26.2277 22.0466 27.0541 19.287C27.0906 19.1651 27.1255 19.042 27.1589 18.9176C27.2303 18.6509 27.3856 18.4485 27.6248 18.3104C27.8639 18.1723 28.1169 18.139 28.3836 18.2105C28.6503 18.282 28.8527 18.4373 28.9908 18.6764C29.1289 18.9156 29.1622 19.1685 29.0907 19.4352C28.1634 22.896 26.1892 25.5349 23.1682 27.3518C20.1352 29.1758 16.9377 29.6374 13.5757 28.7366C10.7684 27.9844 8.64248 26.5816 7.19794 24.5281C6.57922 23.6486 6.16227 22.8088 5.94706 22.0086H4.00013C3.72398 22.0086 3.48828 21.911 3.29302 21.7157C3.09776 21.5204 3.00013 21.2847 3.00013 21.0086C3.00013 20.9004 3.01723 20.795 3.05144 20.6924C3.08566 20.5897 3.13522 20.4951 3.20013 20.4086L6.20013 16.4086C6.36581 16.1877 6.58534 16.0577 6.8587 16.0186C7.13207 15.9796 7.37921 16.0429 7.60013 16.2086C7.63803 16.237 7.67373 16.268 7.70723 16.3015C7.74074 16.335 7.7717 16.3707 7.80013 16.4086ZM7.00013 18.6753L8.00013 20.0086H6.00013L7.00013 18.6753Z" fill="black"></path>
</g>
</svg>