<svg xmlns="http://www.w3.org/2000/svg" xml:space="preserve" width="512" height="512" style="shape-rendering:geometricPrecision;text-rendering:geometricPrecision;image-rendering:optimizeQuality;fill-rule:evenodd;clip-rule:evenodd" viewBox="0 0 512 512"><g id="Layer_x0020_1"><g id="_179881592"><path id="_179880464" d="M216 453h-2c-2-1-3-3-3-5l1-214L26 128c-2-1-3-3-2-5 0-2 2-4 4-4l478-60c2 0 4 1 5 2q1.5 3 0 6L220 451c-1 2-3 2-4 2M44 127l175 100c2 1 3 3 3 4l-1 202L496 70z"/><path id="_179880224" d="M217 236c-2 0-4 0-5-2s0-6 2-7L504 59h5l3 3c1 2 0 5-3 6L219 236z"/><path id="_179880872" d="M5 310c-2 0-3 0-4-2-2-2-1-5 2-7l125-72c2-1 5-1 6 2 2 2 1 5-1 7L8 310z"/><path id="_179880536" d="M26 347c-2 0-4-1-4-3-2-2-1-5 1-7l97-56c3-1 6 0 7 2 1 3 1 6-2 7l-97 56s-1 1-2 1"/><path id="_179881232" d="M47 383c-2 0-4-1-5-3s0-5 2-7l125-72c3-1 6 0 7 2s1 5-2 7L49 382c-1 0-1 1-2 1"/></g></g></svg>