<svg xmlns="http://www.w3.org/2000/svg" width="1601.52" height="1708.186" viewBox="0 0 1601.52 1708.186">
  <g id="Layer_x0020_1" transform="translate(-699.24 -645.145)">
    <path id="Path_257" data-name="Path 257" d="M788.88,1258.6a26.592,26.592,0,0,0-36.87,38.33c.43.41,152.61,142.89,108.11,478.01a26.578,26.578,0,1,0,52.71,6.87c48.07-362.01-123.46-522.75-123.94-523.22Z" fill="gray"></path>
    <path id="Path_258" data-name="Path 258" d="M2246.63,1296.93a26.592,26.592,0,1,0-36.87-38.33c-.49.47-172.02,161.2-123.94,523.22a26.578,26.578,0,1,0,52.71-6.87c-44.5-335.13,107.68-477.6,108.11-478.01Z" fill="gray"></path>
    <path id="Path_259" data-name="Path 259" d="M794.14,1204.75a26.566,26.566,0,1,1-32.71-41.87c143.62-112.26,184.52-277.81,189.71-298.84l.44-1.81c106.41-572.58,188.6,146.43-157.45,342.53Z" fill="gray"></path>
    <path id="Path_260" data-name="Path 260" d="M2001.56,870.54c-78.68-226.91-26.55-354.15,50.99-15.43l.5,2c5.48,22.14,47.87,193.5,191.49,305.77a26.566,26.566,0,1,1-32.71,41.87c-156.75-122.53-203.62-307.35-210.27-334.21Z" fill="gray"></path>
    <path id="Path_261" data-name="Path 261" d="M735.49,648.54a26.577,26.577,0,1,0-19.16,49.58c271.21,104.47,536.9,150.65,797.91,147.62s517.01-55.2,768.92-147.41a26.591,26.591,0,0,0-18.12-50c-246.6,90.26-496.74,141.33-751.21,144.28S1000.2,750.5,735.51,648.54Zm1543.6,198.19a26.624,26.624,0,0,0-10-52.3c-224.57,43.35-445.74,69.68-663.36,77.66-217.57,7.97-431.94-2.35-642.98-32.29q-56.94-8.07-116.22-18.59Q788.1,810.845,731.42,798.74a26.619,26.619,0,0,0-11.04,52.08q59.01,12.615,116.98,22.89,57.525,10.2,118.09,18.79c213.88,30.34,431.31,40.8,652.14,32.7,220.79-8.09,444.65-34.7,671.48-78.49Z" fill="gray"></path>
    <path id="Path_262" data-name="Path 262" d="M725.91,646.66H2274.09a26.669,26.669,0,0,1,26.67,26.67V1778.38a26.669,26.669,0,0,1-26.67,26.67H725.91a26.669,26.669,0,0,1-26.67-26.67V673.33a26.669,26.669,0,0,1,26.67-26.67ZM2247.42,700H752.58V1751.71H2247.42Z" fill="#333"></path>
    <path id="Path_263" data-name="Path 263" d="M725.91,1157.14a26.67,26.67,0,0,0,0,53.34h89.07a20.269,20.269,0,0,1,14.32,5.98h0c.32.32.65.63.99.94a20.2,20.2,0,0,1,5,13.38h0a20.418,20.418,0,0,1-20.3,20.3H725.92a26.67,26.67,0,0,0,0,53.34h89.07a73.782,73.782,0,0,0,73.64-73.64h0a73.439,73.439,0,0,0-19.85-50.1c-.55-.67-1.13-1.31-1.76-1.94h0a73.454,73.454,0,0,0-52.03-21.61H725.92Z" fill="#333"></path>
    <path id="Path_264" data-name="Path 264" d="M2274.09,1210.48a26.67,26.67,0,0,0,0-53.34h-91.81a75.615,75.615,0,0,0-52.72,21.41,72.637,72.637,0,0,0-22.35,52.24h0a72.637,72.637,0,0,0,22.35,52.24,75.678,75.678,0,0,0,52.72,21.41v-.11l91.81-.01a26.56,26.56,0,0,0,0-53.12l-91.81.01v-.11a22.37,22.37,0,0,1-15.64-6.19,19.663,19.663,0,0,1-6.09-14.11h0a19.645,19.645,0,0,1,6.09-14.11,22.352,22.352,0,0,1,15.64-6.19h91.81Z" fill="#333"></path>
    <path id="Path_265" data-name="Path 265" d="M959.58,2203.56a26.67,26.67,0,1,0,0-53.34H843.43V1897.03H999.09v123.11a26.67,26.67,0,0,0,53.34,0V1891.26a47.769,47.769,0,0,0-47.56-47.56H837.66a47.628,47.628,0,0,0-47.56,47.56V2176.9a26.669,26.669,0,0,0,26.67,26.67H959.59Z" fill="#333"></path>
    <path id="Path_266" data-name="Path 266" d="M1155.81,2020.13a26.67,26.67,0,0,0,53.34,0V1897.02h155.67v123.11a26.67,26.67,0,1,0,53.34,0V1891.25a47.7,47.7,0,0,0-47.56-47.56H1203.38a47.672,47.672,0,0,0-47.56,47.56v128.88Zm169.49,183.43a26.67,26.67,0,1,0,0-53.34h-76.64a26.67,26.67,0,1,0,0,53.34Z" fill="#333"></path>
    <path id="Path_267" data-name="Path 267" d="M1521.54,2020.13a26.67,26.67,0,0,0,53.34,0V1897.02h155.67v123.11a26.67,26.67,0,0,0,53.34,0V1891.25a47.7,47.7,0,0,0-47.56-47.56H1569.11a47.672,47.672,0,0,0-47.56,47.56v128.88Zm169.49,183.43a26.67,26.67,0,1,0,0-53.34h-76.64a26.67,26.67,0,1,0,0,53.34Z" fill="#333"></path>
    <path id="Path_268" data-name="Path 268" d="M1887.26,2020.13a26.67,26.67,0,1,0,53.34,0V1897.02h155.66v253.19H1980.11a26.67,26.67,0,1,0,0,53.34h142.81a26.669,26.669,0,0,0,26.67-26.67V1891.24a47.628,47.628,0,0,0-47.56-47.56H1934.82a47.769,47.769,0,0,0-47.56,47.56v128.88Z" fill="#333"></path>
    <path id="Path_269" data-name="Path 269" d="M988.48,1993.46h231.29a55.414,55.414,0,0,1,39.26,16.3h0a28.01,28.01,0,0,1,1.88,2.08,55.249,55.249,0,0,1,14.42,37.19v277.63a26.669,26.669,0,0,1-26.67,26.67H959.57a26.669,26.669,0,0,1-26.67-26.67V2049.03a55.757,55.757,0,0,1,55.57-55.57Zm231.29,53.34H988.48a2.189,2.189,0,0,0-2.23,2.23v250.96H1222V2049.03a2.368,2.368,0,0,0-.33-1.22l-.35-.34h0a2.23,2.23,0,0,0-1.56-.67Z" fill="#333"></path>
    <path id="Path_270" data-name="Path 270" d="M1354.2,1993.46h231.29a55.757,55.757,0,0,1,55.57,55.57v277.63a26.669,26.669,0,0,1-26.67,26.67H1325.3a26.669,26.669,0,0,1-26.67-26.67V2049.03a55.744,55.744,0,0,1,55.57-55.57Zm231.29,53.34H1354.2a2.258,2.258,0,0,0-2.23,2.23v250.96h235.75V2049.03a2.189,2.189,0,0,0-2.23-2.23Z" fill="#333"></path>
    <path id="Path_271" data-name="Path 271" d="M1719.93,1993.46h231.29a55.757,55.757,0,0,1,55.57,55.57v277.63a26.669,26.669,0,0,1-26.67,26.67H1691.03a26.669,26.669,0,0,1-26.67-26.67V2049.03a55.744,55.744,0,0,1,55.57-55.57Zm231.29,53.34H1719.93a2.258,2.258,0,0,0-2.23,2.23v250.96h235.75V2049.03a2.189,2.189,0,0,0-2.23-2.23Z" fill="#333"></path>
  </g>
</svg>